<?xml version="1.0" encoding="utf-8"?>
<!-- Generator: Adobe Illustrator 25.0.1, SVG Export Plug-In . SVG Version: 6.00 Build 0)  -->
<svg version="1.1" id="Layer_1" xmlns="http://www.w3.org/2000/svg" xmlns:xlink="http://www.w3.org/1999/xlink" x="0px" y="0px"
	 viewBox="0 0 500 500" style="enable-background:new 0 0 500 500;" xml:space="preserve">
<style type="text/css">
	.st0{fill:#FFFFFF;}
	.st1{fill-rule:evenodd;clip-rule:evenodd;fill:#006633;}
	.st2{clip-path:url(#SVGID_2_);}
	.st3{fill-rule:evenodd;clip-rule:evenodd;fill:#80C04D;}
	.st4{clip-path:url(#SVGID_4_);}
	.st5{fill:#00BF63;}
	.st6{clip-path:url(#SVGID_6_);}
	.st7{clip-path:url(#SVGID_8_);}
	.st8{clip-path:url(#SVGID_10_);}
	.st9{clip-path:url(#SVGID_12_);}
	.st10{clip-path:url(#SVGID_14_);}
</style>
<rect x="-47" y="-50" class="st0" width="600" height="600"/>
<rect x="-47" y="-50" class="st0" width="600" height="600"/>
<path class="st1" d="M121.7,276.8c-0.6,32.7-3.3,95.3,5.1,123.7c19.9,67.2,93.2,103.3,158.5,81.1c106.4-36.3,111-180.5,14.8-227.3
	c-50.8-24.7-117.4,3.4-164.5-56.5c-5.3-6.7-5.2-8.8-8.6-14.5l-2.8-4c-0.1-0.6-0.5-0.7-0.8-0.9c-1.9,22.2,3.8,55.4,11.2,73.5
	c37.8,91.5,126.4,31.1,157.9,88.9c24.9,46-28.3,95.8-72.5,70.5c-11.2-6.4-35.3-29-25.1-51.9c6.8-15.1,33.7-26,49.8,2.1
	c1.7-39.3-33.4-31.6-63.6-40C141.5,310.4,129.8,281.7,121.7,276.8z"/>
<g>
	<defs>
		<rect id="SVGID_1_" x="121.5" y="48.3" width="188.3" height="193.2"/>
	</defs>
	<clipPath id="SVGID_2_">
		<use xlink:href="#SVGID_1_"  style="overflow:visible;"/>
	</clipPath>
	<g class="st2">
		<path class="st3" d="M296.5,241c-22.2-62.2-111.1-48.3-134.4-98.7c5,14.6,60.7,33.9,75.3,39.3c22.8,8.5,49.5,19.1,61.9,40.8l4.2,7
			c0.3,0.3,0.7,0.7,1,1l2.3,2c1.7-129.4-126.8-88.8-169.9-152.1c-7.6-11.1-8.6-19.4-14.5-31.8c-2.8,21.5,2.5,63.8,7,84.6
			c11.8,54,35.9,82.7,92.4,90.5c13.2,1.8,27.4,1.9,41.3,3.9C280.2,229.8,287.5,235,296.5,241z"/>
	</g>
</g>
<g>
	<defs>
		<rect id="SVGID_3_" x="315.9" y="6.2" width="25.2" height="22.6"/>
	</defs>
	<clipPath id="SVGID_4_">
		<use xlink:href="#SVGID_3_"  style="overflow:visible;"/>
	</clipPath>
	<g class="st4">
		<path class="st5" d="M331.6,8c1.2-1,2.7-1.8,4.3-1.8c2.2,0.1,4.2,1.9,4.6,4c0.1,0.7,0.3,1.4,0.1,2.1c-0.2,2.9-1.5,5.5-3.3,7.8
			c-1.6,2-3.2,4-4.7,6.1c-0.3,0.4-0.6,0.9-1,1.3c-2.6-1.3-5.1-2.7-7.6-4.2c-1.2-0.8-2.4-1.5-3.4-2.5c-1.2-1.2-2.2-2.6-2.9-4.2
			c-0.4-1.2-0.7-2.6-0.4-3.8c0.4-2,2.1-3.7,4.1-4c2.6-0.2,5.1,1.1,7.1,2.7C329.5,10.1,330.4,9,331.6,8 M332.6,10.9
			c-2,0.8-3.2,2.8-4.1,4.7c-1.2-1.2-2.5-2.4-4.1-3.1c-0.7-0.3-1.4-0.4-2.2-0.2c-1.1,0.2-2,1.1-2.3,2.2c-0.2,0.9,0.2,1.8,0.7,2.5
			c0.7,1.1,1.7,1.9,2.7,2.7c2,1.5,4.1,2.9,6.4,4c0.3-0.2,0.5-0.5,0.8-0.7c1.7-1.8,3.4-3.7,4.7-5.9c0.6-1,1.1-2.1,1.2-3.3
			c0-0.9-0.4-1.9-1.2-2.3C334.4,10.8,333.4,10.7,332.6,10.9z"/>
	</g>
</g>
<path class="st5" d="M295,29.5c0.7-2.7,3.6-4.7,6.4-4.1c1.3,0.3,2.4,1.1,3.3,2c1.3,1.2,2.2,2.7,3,4.2c1.7-1.4,3.5-2.7,5.6-3.3
	c0.8-0.2,1.7-0.4,2.6-0.2c1.7,0.2,3,1.5,3.8,2.9c0.8,1.4,0.8,3.2,0.4,4.7c-0.9,2.8-3,5.2-5.5,6.8c-1.4,0.9-3,1.4-4.5,2.2
	c-2,1.1-4,2.3-5.6,3.9c-1.2-2.7-3-5-5.1-7.1c-2.6-2.3-4.3-5.6-4.7-9C294.6,31.6,294.8,30.6,295,29.5 M297.1,29.3
	c-0.5,0.5-0.6,1.3-0.7,2c0.1,1.7,0.9,3.4,1.7,4.9c1.1,1.9,2.3,3.6,3.7,5.3c0.7,0.9,1.4,1.7,2.1,2.4c0.2,0.2,0.4,0,0.6,0
	c2.7-1.2,5.3-2.6,7.7-4.4c1.2-0.9,2.3-1.9,3.1-3.1c0.5-0.8,0.9-1.8,0.7-2.7c-0.3-1.3-1.3-2.4-2.6-2.7c-1.2-0.3-2.4,0.1-3.4,0.6
	c-1.4,0.7-2.7,1.7-3.9,2.9c-0.7-1.6-1.5-3.3-2.8-4.6c-0.7-0.9-1.7-1.6-2.9-1.8C299.3,27.9,298,28.4,297.1,29.3z"/>
<path class="st5" d="M283.5,41c0.6-0.3,1.1-0.7,1.8-1c-0.3,0.6-0.7,1.2-1.1,1.8c-1.6,2.6-3.3,5.1-4.9,7.7c2.5,1.7,7.9,5.5,7.9,5.5
	l-4.1-0.4c0,0-2.1-0.1-3.2,0.1c-3,0.3-5.8,1.8-7.7,4.2c-1.6,1.9-2.5,4.2-3.3,6.6c-0.7,2.2-1.1,4.4-1.6,6.6c-1.3,5.4-3,10.7-5.4,15.6
	c-2,4.1-4.6,8.1-7.9,11.2c-2.6,2.5-5.7,4.4-9.1,5.7c0,1.4,0,2.7,0,4.1c0.1,2.5,0.1,5,0.1,7.5c0,1.8,0.2,3.5,0.1,5.3
	c-0.1,2,0.1,3.9,0.1,5.9c0.1,2.3,0,4.6,0.2,6.8c0,1.6,0,4.6,0,6.2c0,0-1.1-2.6-1.4-3.3c-0.1-0.3-0.3-0.7-0.3-1
	c0-2.1-0.1-4.2-0.1-6.4c-0.1-1.9,0.1-3.8-0.1-5.7c-0.1-2.1,0-4.3-0.1-6.4c-0.1-2.6-0.1-5.1-0.1-7.7c-0.2-1.6-0.1-3.1-0.1-4.7
	c-1.6,0.3-3.2,0.7-4.9,0.8c-0.6,0.2-1.3,0.1-1.9,0.2c-1.6,0.1-3.2,0.1-4.8,0c0.1,1.8,0,3.6,0.1,5.3c0.1,0.9,0.1,1.7,0.1,2.6
	c0,2.7,0.1,5.4,0.1,8c0,1.4,0,2.7,0,4.1c0.1,1.3,0.1,2.6,0.1,4c0,3.5,0.2,7,0.1,10.6c-0.7-1.4-1.1-2.9-1.7-4.3
	c-0.1-1.4,0-2.9-0.1-4.3c-0.1-1.7,0-3.5-0.1-5.2c-0.1-2.7-0.1-5.4-0.1-8c-0.2-2.1-0.1-4.2-0.1-6.3c-0.2-2.2-0.1-4.4-0.1-6.6
	c-0.8-0.2-1.6-0.1-2.4-0.3c-5.4-0.8-10.6-2.8-14.8-6.2c-1.9-1.5-3.7-3.3-5-5.4c2.1,0.1,4.1,0.1,6.1-0.5c2.4-0.6,4.7-1.9,6.5-3.6
	c0.8-0.8,1.7-1.6,2.4-2.5c3.2-4,5.3-8.7,7.2-13.4c1-2.5,1.9-5,3-7.5c2.1-4.8,4.8-9.4,8.2-13.4c1-1.2,2.2-2.3,3.3-3.5
	c1.8-1.7,3.8-3.2,6-4.4c3.1-1.8,6.6-3.2,10.2-3.3c0.8-0.1,1.7-0.1,2.5-0.1c0.8,0.1,1.7,0,2.5,0.2c3.6,0.5,7.2,1.6,10.5,3.2
	C278.7,44,281.1,42.5,283.5,41 M253.9,48.9c-2.8,1.7-5.2,3.9-7.3,6.5c-2.8,3.4-5.1,7.2-7.2,11.1c-2.5,4.6-4.8,9.2-7.2,13.9
	c-2.1,4-4.3,8.1-7.2,11.6c-0.9,0.9-1.7,1.8-2.7,2.5c-0.8,0.5-1.6,0.9-2.5,1.2c-0.4,0.1-0.8,0-1.1,0.2c1.5,0.5,3,0.6,4.6,0.8
	c5,0.5,10.1,0.1,14.7-2c2.2-0.9,4.1-2.4,5.8-4c2.6-2.3,4.7-5.1,6.5-8.1c2.8-4.7,4.9-9.7,7.3-14.6c2-4.1,4.3-8.2,7.7-11.3
	c1.4-1.4,3-2.6,4.6-3.6c2-1.2,4.2-2.1,6.5-2.8c-2.9-2.5-6.6-4-10.4-4.4C261.7,45.5,257.5,46.7,253.9,48.9z"/>
<path class="st5" d="M200.2,70.4c1.5-0.4,3.2-0.1,4.6,0.4c1.9,0.8,3.7,2.1,4.5,4.1c0.5,1.1,0.4,2.4,0.1,3.6
	c-0.4,1.6-1.2,3.1-2.3,4.2c-0.6,0.6-1.2,1.2-1.9,1.5c0.3-0.9,0.6-1.8,0.4-2.8c-0.3-0.8-1.1-1.2-1.9-1.3c-0.9-0.1-1.9,0-2.5,0.8
	c-0.7,0.9-0.8,2-0.8,3.1c0.3,2.3,1.3,4.4,2.7,6.1c0.6,0.8,1.3,1.6,2.1,2.2c0.3,0.2,0.5,0.5,0.7,0.8c-1.2-0.5-2.2-1.3-3.3-2
	c-2.1-1.5-4-3.1-5.7-5c-1.3-1.5-2.5-3.2-3-5.2c-0.2-1-0.5-2-0.2-3c0.3-2,1.3-3.7,2.7-5.1C197.3,71.5,198.7,70.7,200.2,70.4z"/>
<g>
	<defs>
		<rect id="SVGID_5_" x="172.6" y="74.4" width="37" height="21.3"/>
	</defs>
	<clipPath id="SVGID_6_">
		<use xlink:href="#SVGID_5_"  style="overflow:visible;"/>
	</clipPath>
	<g class="st6">
		<path class="st5" d="M175,76.7c0.9-0.5,2-0.9,3.1-0.6c1.6,0.4,2.8,1.6,3.9,2.8c1.9,2.1,3.7,4.4,5.7,6.5c1.6,2,3.6,3.6,5.8,4.9
			c3.5,2,7.5,3.2,11.5,3.7c0.7,0.1,1.4,0.2,2.1,0.2c-1.2,0.5-2.5,0.6-3.7,0.8c-4.4,0.6-8.8,0.3-13.1-0.6c-5.3-1-10.2-3.6-13.9-7.6
			c-1.3-1.4-2.4-3-3-4.8c-0.4-1.1-0.6-2.4,0-3.5C173.5,77.7,174.3,77.2,175,76.7z"/>
	</g>
</g>
<path class="st5" d="M206.7,95.2c0.1-0.1,0.2-0.2,0.2-0.4c0,0.1-0.1,0.3-0.1,0.4c0,0.1,0,0.2,0,0.2c0,0.4-0.2,0.7-0.3,1
	c-1.5,2.9-3.6,5.6-6.3,7.5c-1.9,1.3-4.2,2-6.5,2.1c-1.1,0.2-2.3,0.1-3.4-0.1c-1.1-0.3-2.4-0.7-2.9-1.8c-0.5-1,0.1-2.1,0.9-2.7
	c1-0.8,2.3-1.2,3.6-1.2c1.7-0.2,3.5,0,5.2-0.1c0.7-0.1,1.4-0.1,2-0.3c2.5-0.5,4.8-1.8,6.5-3.6C205.9,95.9,206.3,95.5,206.7,95.2z"/>
<g>
	<defs>
		<rect id="SVGID_7_" x="246.1" y="138.2" width="9.1" height="4.7"/>
	</defs>
	<clipPath id="SVGID_8_">
		<use xlink:href="#SVGID_7_"  style="overflow:visible;"/>
	</clipPath>
	<g class="st7">
		<path class="st5" d="M253,140.9c0-0.6-0.4-1-0.9-1.1l-5.3,0.6l5.1,1.4C252.5,141.9,253,141.5,253,140.9z"/>
	</g>
</g>
<path class="st5" d="M250.5,138.3c-0.1-0.3-0.5-0.5-0.8-0.3l-2.8,1.9l3.3-0.7C250.5,139,250.6,138.6,250.5,138.3z"/>
<g>
	<defs>
		<rect id="SVGID_9_" x="246.1" y="138.2" width="6.1" height="4.7"/>
	</defs>
	<clipPath id="SVGID_10_">
		<use xlink:href="#SVGID_9_"  style="overflow:visible;"/>
	</clipPath>
	<g class="st8">
		<path class="st5" d="M250.2,142.9c0.2-0.3,0-0.7-0.3-0.9l-3.3-0.8l2.8,2C249.7,143.3,250,143.2,250.2,142.9z"/>
	</g>
</g>
<g>
	<defs>
		<rect id="SVGID_11_" x="230.9" y="138.2" width="9.1" height="4.7"/>
	</defs>
	<clipPath id="SVGID_12_">
		<use xlink:href="#SVGID_11_"  style="overflow:visible;"/>
	</clipPath>
	<g class="st9">
		<path class="st5" d="M239.4,141.5c0-0.5-0.4-1-0.9-1.1l-5.3,0.6l5.1,1.4C238.8,142.5,239.3,142.1,239.4,141.5z"/>
	</g>
</g>
<path class="st5" d="M236.8,138.9c-0.1-0.3-0.5-0.5-0.8-0.3l-2.8,1.9l3.3-0.7C236.8,139.6,237,139.2,236.8,138.9z"/>
<g>
	<defs>
		<rect id="SVGID_13_" x="230.9" y="141.2" width="6.1" height="1.7"/>
	</defs>
	<clipPath id="SVGID_14_">
		<use xlink:href="#SVGID_13_"  style="overflow:visible;"/>
	</clipPath>
	<g class="st10">
		<path class="st5" d="M236.5,143.5c0.2-0.3,0-0.7-0.3-0.9l-3.3-0.8l2.8,2C236,143.9,236.4,143.8,236.5,143.5z"/>
	</g>
</g>
<path class="st5" d="M259.9,52c4.5,1.3,7.8,0.5,9.6-3c0.1,2-0.8,3.6-3.3,4.5C263.3,54.6,261.3,53.9,259.9,52z"/>
</svg>
